HIERARCHY
ROOT Hip
{
	OFFSET 0 1.131 0.0052
	CHANNELS 6 Xposition Yposition Zposition Xrotation Yrotation Zrotation
	JOINT Abdomen
	{
		OFFSET 0 -0.047353 -0.05
		CHANNELS 3 Xrotation Zrotation Yrotation
		JOINT Chest
		{
			OFFSET 0 0.132153 0.007439
			CHANNELS 3 Xrotation Zrotation Yrotation
			JOINT Neck
			{
				OFFSET 0 0.3078 0.006161
				CHANNELS 3 Xrotation Zrotation Yrotation
				JOINT Head_comp
				{
					OFFSET 0 0.0884 0.013
					CHANNELS 3 Xrotation Yrotation Zrotation
					End Site
					{
						OFFSET -0 0.156 0.0624
					}
				}
			}
			JOINT Left_Collar
			{
				OFFSET 0.02282 0.250342 0.017193
				CHANNELS 2 Yrotation Zrotation
				JOINT Left_Shoulder
				{
					OFFSET 0.15421 0 0
					CHANNELS 3 Xrotation Yrotation Zrotation
					JOINT Left_Forearm
					{
						OFFSET 0.265212 0 0
						CHANNELS 2 Yrotation Xrotation
						JOINT Left_Hand
						{
							OFFSET 0.27571 0 0
							CHANNELS 2 Zrotation Yrotation
							JOINT L1ProxPhalanx
							{
								OFFSET 0.014142 0.001733 0.014142
								CHANNELS 3 Yrotation Zrotation Xrotation
								JOINT L1MidPhalanx
								{
									OFFSET 0.04 0 0
									CHANNELS 1 Zrotation
									JOINT L1DistPhalanx
									{
										OFFSET 0.035 0 0
										CHANNELS 1 Zrotation
										End Site
										{
											OFFSET 0.029 -0 -0
										}
									}
								}
							}
							JOINT L2ProxPhalanx
							{
								OFFSET 0.0821037 0.001578 0.0219996
								CHANNELS 2 Yrotation Zrotation
								JOINT L2MidPhalanx
								{
									OFFSET 0.04 0 0
									CHANNELS 1 Zrotation
									JOINT L2DistPhalanx
									{
										OFFSET 0.028 0 0
										CHANNELS 1 Zrotation
										End Site
										{
											OFFSET 0.02 -0 -0
										}
									}
								}
							}
							JOINT L3ProxPhalanx
							{
								OFFSET 0.083 0 0
								CHANNELS 2 Yrotation Zrotation
								JOINT L3MidPhalanx
								{
									OFFSET 0.053 0 0
									CHANNELS 1 Zrotation
									JOINT L3DistPhalanx
									{
										OFFSET 0.03 0 0
										CHANNELS 1 Zrotation
										End Site
										{
											OFFSET 0.023 -0 -0
										}
									}
								}
							}
							JOINT L4ProxPhalanx
							{
								OFFSET 0.077274 -0.000761 -0.0207055
								CHANNELS 2 Yrotation Zrotation
								JOINT L4MidPhalanx
								{
									OFFSET 0.05 0 0
									CHANNELS 1 Zrotation
									JOINT L4DistPhalanx
									{
										OFFSET 0.03 0 0
										CHANNELS 1 Zrotation
										End Site
										{
											OFFSET 0.023 -0 -0
										}
									}
								}
							}
							JOINT L5ProxPhalanx
							{
								OFFSET 0.0675499 -0.001644 -0.039
								CHANNELS 2 Yrotation Zrotation
								JOINT L5MidPhalanx
								{
									OFFSET 0.04 0 0
									CHANNELS 1 Zrotation
									JOINT L5DistPhalanx
									{
										OFFSET 0.021 0 0
										CHANNELS 1 Zrotation
										End Site
										{
											OFFSET 0.022 -0 -0
										}
									}
								}
							}
						}
					}
				}
			}
			JOINT Right_Collar
			{
				OFFSET -0.02282 0.250342 0.017193
				CHANNELS 2 Yrotation Zrotation
				JOINT Right_Shoulder
				{
					OFFSET -0.15421 0 0
					CHANNELS 3 Xrotation Yrotation Zrotation
					JOINT Right_Forearm
					{
						OFFSET -0.265212 0 0
						CHANNELS 2 Yrotation Xrotation
						JOINT Right_Hand
						{
							OFFSET -0.27571 3e-006 0
							CHANNELS 2 Zrotation Yrotation
							JOINT R1ProxPhalanx
							{
								OFFSET -0.014142 0.001733 0.014142
								CHANNELS 3 Yrotation Zrotation Xrotation
								JOINT R1MidPhalanx
								{
									OFFSET -0.04 0 0
									CHANNELS 1 Zrotation
									JOINT R1DistPhalanx
									{
										OFFSET -0.035 0 0
										CHANNELS 1 Zrotation
										End Site
										{
											OFFSET -0.029 -0 -0
										}
									}
								}
							}
							JOINT R2ProxPhalanx
							{
								OFFSET -0.0821037 0.001578 0.0219996
								CHANNELS 2 Yrotation Zrotation
								JOINT R2MidPhalanx
								{
									OFFSET -0.04 0 0
									CHANNELS 1 Zrotation
									JOINT R2DistPhalanx
									{
										OFFSET -0.028 0 0
										CHANNELS 1 Zrotation
										End Site
										{
											OFFSET -0.02 -0 -0
										}
									}
								}
							}
							JOINT R3ProxPhalanx
							{
								OFFSET -0.083 0 0
								CHANNELS 2 Yrotation Zrotation
								JOINT R3MidPhalanx
								{
									OFFSET -0.053 0 0
									CHANNELS 1 Zrotation
									JOINT R3DistPhalanx
									{
										OFFSET -0.03 0 0
										CHANNELS 1 Zrotation
										End Site
										{
											OFFSET -0.023 -0 -0
										}
									}
								}
							}
							JOINT R4ProxPhalanx
							{
								OFFSET -0.077274 -0.000761 -0.0207055
								CHANNELS 2 Yrotation Zrotation
								JOINT R4MidPhalanx
								{
									OFFSET -0.05 0 0
									CHANNELS 1 Zrotation
									JOINT R4DistPhalanx
									{
										OFFSET -0.03 0 0
										CHANNELS 1 Zrotation
										End Site
										{
											OFFSET -0.023 -0 -0
										}
									}
								}
							}
							JOINT R5ProxPhalanx
							{
								OFFSET -0.0675499 -0.001644 -0.039
								CHANNELS 2 Yrotation Zrotation
								JOINT R5MidPhalanx
								{
									OFFSET -0.04 0 0
									CHANNELS 1 Zrotation
									JOINT R5DistPhalanx
									{
										OFFSET -0.021 0 0
										CHANNELS 1 Zrotation
										End Site
										{
											OFFSET -0.022 -0 -0
										}
									}
								}
							}
						}
					}
				}
			}
		}
	}
	JOINT Left_Thigh
	{
		OFFSET 0.1118 -0.1612 -0.0442
		CHANNELS 3 Xrotation Zrotation Yrotation
		JOINT Left_Shin
		{
			OFFSET 0 -0.477856 0
			CHANNELS 1 Xrotation
			JOINT Left_Foot
			{
				OFFSET 0 -0.431952 0
				CHANNELS 2 Xrotation Zrotation
				JOINT Left_Toe
				{
					OFFSET 0 -0.0442 0.119
					CHANNELS 1 Xrotation
					End Site
					{
						OFFSET -0 -0 0.07
					}
				}
			}
		}
	}
	JOINT Right_Thigh
	{
		OFFSET -0.1118 -0.1612 -0.0442
		CHANNELS 3 Xrotation Zrotation Yrotation
		JOINT Right_Shin
		{
			OFFSET 0 -0.477856 0
			CHANNELS 1 Xrotation
			JOINT Right_Foot
			{
				OFFSET 0 -0.431952 0
				CHANNELS 2 Xrotation Zrotation
				JOINT Right_Toe
				{
					OFFSET 0 -0.0442 0.119
					CHANNELS 1 Xrotation
					End Site
					{
						OFFSET -0 -0 0.07
					}
				}
			}
		}
	}
}
MOTION
Frames: 10
Frame Time: 0.00999531
-0.100956 -0.0602514 0.0578219 -2.92868e-013 1.05716e-007 -5.10859e-006 0 0 0 0 0 0 0 0 0 -0.713861 0.290263 0 8.27208 -31.015 10.4644 -9.86857 -24.2564 -125.767 -7.17761 3.72125 -16.9043 -40.5316 -43.5896 103.283 -7.10789 -4.81548 2.69559 -7.40342 -2.98992 -6.72733 5.89092 0.508958 -5.4973 -5.3917 11.1257 1.19015 -12.1062 -9.35422 19.4153 3.33565 -41.2194 -1.46018 0 3.88717 30.6237 11.2182 67.4665 82.6896 0 0 0 37.9386 28.008 73.698 26.2405 28.4472 13.118 18.2167 29.0248 19.6359 0 22.4358 32.6146 28.1246 -8.63175 30.7051 32.2053 23.7634 -7.83088 26.7354 35.1526 30.0193 1.17408 -0.682953 -0.0139966 0.0240216 -1.19802 0.683101 0 1.18549 -0.68295 -0.0141325 2.83165e-006 -1.18541 0.683101 0 
-0.111805 -0.0599919 0.0389921 -3.27984e-016 -4.43897e-011 2.39399e-009 0 -0 0 0 -0 0 0 -0 0 0.000334584 -0.000137091 8.54604e-007 -0.00392399 0.0145461 -0.00177675 0.00684728 -88.5294 0.0589593 0.00414632 -0.00175013 0.00792281 -55.0042 -24.9903 79.9913 -35.0131 -20.0071 -1.00169 -30.0106 -40.0174 -15.0039 -0.00279786 -32.0152 -40.0162 -18.0059 1.49562 -32.0155 -40.0131 -18.004 5.99385 -24.0127 -33.9966 -20.0087 0.00392399 -0.0145461 -0.00177675 -0.00684728 88.5294 -0.0589593 0.00414632 0.00175013 -0.00792281 55.0042 24.9903 79.9913 35.0131 20.0071 1.00169 30.0106 40.0174 15.0039 0.00279786 32.0152 40.0162 18.0059 -1.49562 32.0155 40.0131 18.004 -5.99385 24.0127 33.9966 20.0087 -0.000492398 0.000307993 2.82305e-006 -1.12566e-005 0.000503662 -0.000308008 0 -0.000497742 0.000307993 2.85369e-006 0 0.00049775 -0.000308009 0 
-0.101375 -0.060208 0.0558499 7.0348e-013 9.46388e-008 -5.10399e-006 0 -0 0 0 -0 0 0 -0 0 -0.713334 0.292282 -1.70683e-006 8.26452 -30.9859 10.4474 -9.86312 -24.3092 -125.651 -7.17383 3.71778 -16.8885 -40.5517 -43.5749 103.255 -7.13403 -4.82971 2.69218 -7.42459 -3.02461 -6.73508 5.88555 0.47852 -5.52964 -5.40352 11.1169 1.15912 -12.1323 -9.36233 19.403 3.31015 -41.2126 -1.47756 -8.26452 30.9859 10.4474 9.86312 24.3092 125.651 -7.17383 -3.71778 16.8885 40.5517 43.5749 103.255 7.13403 4.82971 -2.69218 7.42459 3.02461 6.73508 -5.88555 -0.47852 5.52964 5.40352 -11.1169 -1.15912 12.1323 9.36233 -19.403 -3.31015 41.2126 1.47756 1.04987 -0.656549 -0.0120373 0.0239991 -1.0738 0.656665 0 1.06127 -0.656547 -0.0121679 0 -1.0612 0.656665 0 
-0.10135 -0.0601927 0.0550004 7.04144e-013 9.47276e-008 -5.10878e-006 0 -0 0 0 -0 0 0 -0 0 -0.713513 0.291304 -7.53737e-012 8.27208 -31.015 10.4644 -9.86857 -24.2564 -125.767 -7.17761 3.72125 -16.9043 -40.5316 -43.5896 103.283 -7.10789 -4.81548 2.69559 -7.40342 -2.98992 -6.72733 5.89092 0.508958 -5.4973 -5.3917 11.1257 1.19015 -12.1062 -9.35422 19.4153 3.33565 -41.2194 -1.46018 -8.27208 31.015 10.4644 9.86857 24.2564 125.767 -7.17761 -3.72125 16.9043 40.5316 43.5896 103.283 7.10789 4.81548 -2.69559 7.40342 2.98992 6.72733 -5.89092 -0.508958 5.4973 5.3917 -11.1257 -1.19015 12.1062 9.35422 -19.4153 -3.33565 41.2194 1.46018 0.996348 -0.658109 -0.0114452 0.0240216 -1.0203 0.658213 0 1.00775 -0.658106 -0.0115762 2.41144e-006 -1.00769 0.658213 0 
-0.10135 -0.0601926 0.0549917 -4.29146e-013 8.98604e-008 -5.10887e-006 0 -0 0 0 -0 0 0 -0 0 -0.713491 0.291289 -4.78021e-015 8.27208 -31.015 10.4644 -9.86857 -24.2564 -125.767 -7.17761 3.72125 -16.9043 -40.5316 -43.5896 103.283 -7.10789 -4.81548 2.69559 -7.40342 -2.98992 -6.72733 5.89092 0.508958 -5.4973 -5.3917 11.1257 1.19015 -12.1062 -9.35422 19.4153 3.33565 -41.2194 -1.46018 -8.27208 31.015 10.4644 9.86857 24.2564 125.767 -7.17761 -3.72125 16.9043 40.5316 43.5896 103.283 7.10789 4.81548 -2.69559 7.40342 2.98992 6.72733 -5.89092 -0.508958 5.4973 5.3917 -11.1257 -1.19015 12.1062 9.35422 -19.4153 -3.33565 41.2194 1.46018 0.995804 -0.658117 -0.0114391 0.0240216 -1.01976 0.658221 0 1.00721 -0.658115 -0.0115701 4.5264e-009 -1.00714 0.658222 0 
-0.10135 -0.0601926 0.0549917 -3.06199e-013 8.98186e-008 -5.10887e-006 0 -0 0 0 -0 0 0 -0 0 -0.713491 0.291289 3.88256e-019 8.27208 -31.015 10.4644 -9.86857 -24.2564 -125.767 -7.17761 3.72125 -16.9043 -40.5316 -43.5896 103.283 -7.10789 -4.81548 2.69559 -7.40342 -2.98992 -6.72733 5.89092 0.508958 -5.4973 -5.3917 11.1257 1.19015 -12.1062 -9.35422 19.4153 3.33565 -41.2194 -1.46018 -8.27208 31.015 10.4644 9.86857 24.2564 125.767 -7.17761 -3.72125 16.9043 40.5316 43.5896 103.283 7.10789 4.81548 -2.69559 7.40342 2.98992 6.72733 -5.89092 -0.508958 5.4973 5.3917 -11.1257 -1.19015 12.1062 9.35422 -19.4153 -3.33565 41.2194 1.46018 0.995799 -0.658117 -0.011439 0.0240216 -1.01975 0.658222 0 1.0072 -0.658115 -0.01157 0 -1.00714 0.658222 0 
-0.10135 -0.0601926 0.0549917 -1.93588e-013 8.98183e-008 -5.10887e-006 0 -0 0 0 -0 0 0 -0 0 -0.71349 0.291288 -0 8.27208 -31.015 10.4644 -9.86857 -24.2564 -125.767 -7.17761 3.72125 -16.9043 -40.5316 -43.5896 103.283 -7.10789 -4.81548 2.69559 -7.40342 -2.98992 -6.72733 5.89092 0.508958 -5.4973 -5.3917 11.1257 1.19015 -12.1062 -9.35422 19.4153 3.33565 -41.2194 -1.46018 -8.27208 31.015 10.4644 9.86857 24.2564 125.767 -7.17761 -3.72125 16.9043 40.5316 43.5896 103.283 7.10789 4.81548 -2.69559 7.40342 2.98992 6.72733 -5.89092 -0.508958 5.4973 5.3917 -11.1257 -1.19015 12.1062 9.35422 -19.4153 -3.33565 41.2194 1.46018 0.995799 -0.658117 -0.011439 0.0240216 -1.01975 0.658222 0 1.0072 -0.658115 -0.01157 0 -1.00714 0.658222 0 
-0.10135 -0.0601926 0.0549917 -3.25183e-013 8.98183e-008 -5.10887e-006 0 -0 0 0 -0 0 0 -0 0 -0.71349 0.291288 -3.88256e-019 8.27208 -31.015 10.4644 -9.86857 -24.2564 -125.767 -7.17761 3.72125 -16.9043 -40.5316 -43.5896 103.283 -7.10789 -4.81548 2.69559 -7.40342 -2.98992 -6.72733 5.89092 0.508958 -5.4973 -5.3917 11.1257 1.19015 -12.1062 -9.35422 19.4153 3.33565 -41.2194 -1.46018 -8.27208 31.015 10.4644 9.86857 24.2564 125.767 -7.17761 -3.72125 16.9043 40.5316 43.5896 103.283 7.10789 4.81548 -2.69559 7.40342 2.98992 6.72733 -5.89092 -0.508958 5.4973 5.3917 -11.1257 -1.19015 12.1062 9.35422 -19.4153 -3.33565 41.2194 1.46018 0.995799 -0.658117 -0.011439 0.0240216 -1.01975 0.658222 0 1.0072 -0.658115 -0.01157 2.40692e-006 -1.00714 0.658222 0 
-0.10135 -0.0601926 0.0549917 -6.57551e-013 8.98183e-008 -5.10887e-006 0 -0 0 0 -0 0 0 -0 0 -0.71349 0.291288 7.76513e-019 8.27208 -31.015 10.4644 -9.86857 -24.2564 -125.767 -7.17761 3.72125 -16.9043 -40.5316 -43.5896 103.283 -7.10789 -4.81548 2.69559 -7.40342 -2.98992 -6.72733 5.89092 0.508958 -5.4973 -5.3917 11.1257 1.19015 -12.1062 -9.35422 19.4153 3.33565 -41.2194 -1.46018 -8.27208 31.015 10.4644 9.86857 24.2564 125.767 -7.17761 -3.72125 16.9043 40.5316 43.5896 103.283 7.10789 4.81548 -2.69559 7.40342 2.98992 6.72733 -5.89092 -0.508958 5.4973 5.3917 -11.1257 -1.19015 12.1062 9.35422 -19.4153 -3.33565 41.2194 1.46018 0.995799 -0.658117 -0.011439 0.0240216 -1.01975 0.658222 0 1.0072 -0.658115 -0.01157 2.41484e-006 -1.00714 0.658222 0 
-0.10135 -0.0601926 0.0549917 -4.60158e-013 8.98183e-008 -5.10887e-006 0 -0 0 0 -0 0 0 -0 0 -0.71349 0.291288 -0 8.27208 -31.015 10.4644 -9.86857 -24.2564 -125.767 -7.17761 3.72125 -16.9043 -40.5316 -43.5896 103.283 -7.10789 -4.81548 2.69559 -7.40342 -2.98992 -6.72733 5.89092 0.508958 -5.4973 -5.3917 11.1257 1.19015 -12.1062 -9.35422 19.4153 3.33565 -41.2194 -1.46018 -8.27208 31.015 10.4644 9.86857 24.2564 125.767 -7.17761 -3.72125 16.9043 40.5316 43.5896 103.283 7.10789 4.81548 -2.69559 7.40342 2.98992 6.72733 -5.89092 -0.508958 5.4973 5.3917 -11.1257 -1.19015 12.1062 9.35422 -19.4153 -3.33565 41.2194 1.46018 0.995799 -0.658117 -0.011439 0.0240216 -1.01975 0.658222 0 1.0072 -0.658115 -0.01157 1.71229e-006 -1.00714 0.658222 0 
